
<svg id="logo-CCPC-strapline-white" xmlns="http://www.w3.org/2000/svg" xmlns:xlink="http://www.w3.org/1999/xlink" width="200" height="136.676" viewBox="0 0 200 136.676">
  <defs>
    <clipPath id="clip-path">
      <rect id="Rectangle_4" data-name="Rectangle 4" width="200" height="136.676" fill="none"/>
    </clipPath>
  </defs>
  <g id="Group_1" data-name="Group 1" clip-path="url(#clip-path)">
    <path id="Path_1" data-name="Path 1" d="M17.71,43.7A26.456,26.456,0,0,1,44.166,17.248V0a43.7,43.7,0,1,0,0,87.409V70.161A26.456,26.456,0,0,1,17.71,43.7" transform="translate(0.02)" fill="#fff"/>
    <path id="Path_2" data-name="Path 2" d="M42.74,16.546V33.794a9.2,9.2,0,1,0,0,18.394V69.421a26.438,26.438,0,1,0,0-52.875" transform="translate(1.446 0.713)" fill="#fff"/>
    <path id="Path_3" data-name="Path 3" d="M108.033,54.506a16.34,16.34,0,0,1-11.775,4.6c-11.508,0-16.378-7.923-16.422-15.979C79.792,35.03,85.06,26.8,96.259,26.8a15.986,15.986,0,0,1,11.375,4.736l-3.9,3.763a10.64,10.64,0,0,0-7.479-2.922c-7.48,0-10.711,5.578-10.667,10.756.044,5.136,3.009,10.491,10.667,10.491a11.416,11.416,0,0,0,7.791-3.143Z" transform="translate(3.442 1.155)" fill="#fff"/>
    <path id="Path_4" data-name="Path 4" d="M136.043,54.506a16.336,16.336,0,0,1-11.774,4.6c-11.508,0-16.378-7.923-16.422-15.979C107.8,35.03,113.071,26.8,124.27,26.8a15.986,15.986,0,0,1,11.375,4.736l-3.9,3.763a10.64,10.64,0,0,0-7.479-2.922c-7.481,0-10.712,5.578-10.667,10.756.044,5.136,3.009,10.491,10.667,10.491a11.412,11.412,0,0,0,7.79-3.143Z" transform="translate(4.65 1.155)" fill="#fff"/>
    <path id="Path_5" data-name="Path 5" d="M152.208,49.26h-8.764v9.118H137.6V27.394c4.869,0,9.737-.045,14.607-.045,15.139,0,15.181,21.911,0,21.911M143.443,43.9h8.764c7.481,0,7.436-10.977,0-10.977h-8.764Z" transform="translate(5.932 1.179)" fill="#fff"/>
    <path id="Path_6" data-name="Path 6" d="M192.789,54.506a16.336,16.336,0,0,1-11.774,4.6c-11.509,0-16.378-7.923-16.422-15.979-.045-8.1,5.223-16.332,16.422-16.332a15.986,15.986,0,0,1,11.375,4.736l-3.9,3.763a10.64,10.64,0,0,0-7.479-2.922c-7.481,0-10.712,5.578-10.667,10.756.043,5.136,3.009,10.491,10.667,10.491a11.412,11.412,0,0,0,7.79-3.143Z" transform="translate(7.096 1.155)" fill="#fff"/>
    <path id="Path_7" data-name="Path 7" d="M104.223,108.252a3.619,3.619,0,0,1-2.61,1.02,3.377,3.377,0,0,1-3.64-3.541,3.457,3.457,0,0,1,3.64-3.621,3.54,3.54,0,0,1,2.521,1.049l-.863.834a2.357,2.357,0,0,0-1.659-.648,2.252,2.252,0,0,0-2.365,2.385,2.2,2.2,0,0,0,2.365,2.325,2.529,2.529,0,0,0,1.727-.7Z" transform="translate(4.224 4.402)" fill="#fff"/>
    <path id="Path_8" data-name="Path 8" d="M109.3,106.616a2.517,2.517,0,1,1-2.531-2.521,2.444,2.444,0,0,1,2.531,2.521m-3.836,0a1.319,1.319,0,1,0,2.63,0,1.366,1.366,0,0,0-1.315-1.432,1.328,1.328,0,0,0-1.314,1.432" transform="translate(4.495 4.488)" fill="#fff"/>
    <path id="Path_9" data-name="Path 9" d="M113.1,109.03v-2.59c0-.638-.334-1.217-.991-1.217a1.1,1.1,0,0,0-1.031,1.217v2.59h-1.2v-4.847h1.11l.088.588a1.4,1.4,0,0,1,1.276-.667,1.449,1.449,0,0,1,1.432.9,1.752,1.752,0,0,1,1.619-.882c1.374,0,2.051.844,2.051,2.3v2.61h-1.2v-2.61c0-.638-.265-1.178-.913-1.178a1.1,1.1,0,0,0-1.05,1.2v2.59Z" transform="translate(4.737 4.488)" fill="#fff"/>
    <path id="Path_10" data-name="Path 10" d="M118.212,111.052v-6.858h1.118l.079.667a1.923,1.923,0,0,1,1.57-.775,2.42,2.42,0,0,1,2.483,2.532,2.361,2.361,0,0,1-2.444,2.532,1.948,1.948,0,0,1-1.608-.687v2.591Zm4.052-4.435a1.373,1.373,0,1,0-2.747,0,1.373,1.373,0,1,0,2.747,0" transform="translate(5.096 4.487)" fill="#fff"/>
    <path id="Path_11" data-name="Path 11" d="M125.12,107.04a1.286,1.286,0,0,0,1.442,1.031,1.994,1.994,0,0,0,1.3-.452l.766.755a2.972,2.972,0,0,1-2.08.785,2.557,2.557,0,1,1-.089-5.112c1.619,0,2.63,1,2.443,2.993Zm2.63-.991a1.108,1.108,0,0,0-1.256-.942,1.3,1.3,0,0,0-1.355.942Z" transform="translate(5.341 4.486)" fill="#fff"/>
    <path id="Path_12" data-name="Path 12" d="M131.082,102.881v1.374h1.334v1.03h-1.345v2.09a.6.6,0,0,0,.628.687,1.375,1.375,0,0,0,.579-.147l.334,1.02a2.658,2.658,0,0,1-.991.205,1.563,1.563,0,0,1-1.737-1.766v-2.09h-.9v-1.03h.9v-1.247Z" transform="translate(5.561 4.435)" fill="#fff"/>
    <path id="Path_13" data-name="Path 13" d="M134.439,102.91a.707.707,0,0,1-1.413,0,.707.707,0,0,1,1.413,0m-1.306,6.2h1.2v-4.857h-1.2Z" transform="translate(5.735 4.407)" fill="#fff"/>
    <path id="Path_14" data-name="Path 14" d="M137.016,102.881v1.374h1.334v1.03h-1.345v2.09a.6.6,0,0,0,.628.687,1.376,1.376,0,0,0,.579-.147l.334,1.02a2.657,2.657,0,0,1-.991.205,1.563,1.563,0,0,1-1.737-1.766v-2.09h-.9v-1.03h.9v-1.247Z" transform="translate(5.816 4.435)" fill="#fff"/>
    <path id="Path_15" data-name="Path 15" d="M140.373,102.91a.707.707,0,0,1-1.413,0,.707.707,0,0,1,1.413,0m-1.3,6.2h1.2v-4.857h-1.2Z" transform="translate(5.991 4.407)" fill="#fff"/>
    <path id="Path_16" data-name="Path 16" d="M146.166,106.616a2.517,2.517,0,1,1-2.532-2.521,2.445,2.445,0,0,1,2.532,2.521m-3.837,0a1.319,1.319,0,1,0,2.63,0,1.366,1.366,0,0,0-1.314-1.432,1.329,1.329,0,0,0-1.315,1.432" transform="translate(6.085 4.488)" fill="#fff"/>
    <path id="Path_17" data-name="Path 17" d="M150.31,109.029V106.5a1.154,1.154,0,0,0-1.168-1.295,1.272,1.272,0,0,0-1.236,1.354v2.472h-1.187v-4.847h1.07l.078.657a2.181,2.181,0,0,1,1.59-.726,2.105,2.105,0,0,1,2.05,2.375v2.541Z" transform="translate(6.325 4.489)" fill="#fff"/>
    <path id="Path_18" data-name="Path 18" d="M158.939,104.193h1.148v4.837h-1.129l-.058-.706a1.841,1.841,0,0,1-1.57.854,2.552,2.552,0,0,1,.029-5.1,1.777,1.777,0,0,1,1.541.785Zm-2.9,2.414a1.386,1.386,0,0,0,1.432,1.472,1.468,1.468,0,0,0,0-2.934,1.378,1.378,0,0,0-1.432,1.462" transform="translate(6.675 4.487)" fill="#fff"/>
    <path id="Path_19" data-name="Path 19" d="M164.4,109.029V106.5a1.153,1.153,0,0,0-1.167-1.295A1.272,1.272,0,0,0,162,106.557v2.472h-1.187v-4.847h1.069l.078.657a2.181,2.181,0,0,1,1.59-.726,2.106,2.106,0,0,1,2.051,2.375v2.541Z" transform="translate(6.933 4.489)" fill="#fff"/>
    <path id="Path_20" data-name="Path 20" d="M171.421,102.25v6.858H170.3l-.079-.667a1.759,1.759,0,0,1-1.559.775,2.374,2.374,0,0,1-2.492-2.532,2.316,2.316,0,0,1,2.462-2.532,2,2,0,0,1,1.59.775V102.25Zm-4.052,4.435a1.389,1.389,0,1,0,2.777,0,1.381,1.381,0,0,0-1.4-1.413,1.335,1.335,0,0,0-1.374,1.413" transform="translate(7.164 4.408)" fill="#fff"/>
    <path id="Path_21" data-name="Path 21" d="M104.223,117.657a3.619,3.619,0,0,1-2.61,1.02,3.377,3.377,0,0,1-3.64-3.541,3.457,3.457,0,0,1,3.64-3.621,3.54,3.54,0,0,1,2.521,1.049l-.863.834a2.357,2.357,0,0,0-1.659-.648,2.252,2.252,0,0,0-2.365,2.385,2.2,2.2,0,0,0,2.365,2.325,2.529,2.529,0,0,0,1.727-.7Z" transform="translate(4.224 4.808)" fill="#fff"/>
    <path id="Path_22" data-name="Path 22" d="M109.3,116.021a2.517,2.517,0,1,1-2.531-2.521,2.444,2.444,0,0,1,2.531,2.521m-3.836,0a1.319,1.319,0,1,0,2.63,0,1.366,1.366,0,0,0-1.315-1.432,1.328,1.328,0,0,0-1.314,1.432" transform="translate(4.495 4.893)" fill="#fff"/>
    <path id="Path_23" data-name="Path 23" d="M113.442,118.434V115.9a1.154,1.154,0,0,0-1.167-1.295,1.272,1.272,0,0,0-1.237,1.354v2.472h-1.187v-4.847h1.07l.078.657a2.181,2.181,0,0,1,1.59-.726,2.105,2.105,0,0,1,2.05,2.375v2.541Z" transform="translate(4.736 4.894)" fill="#fff"/>
    <path id="Path_24" data-name="Path 24" d="M118.6,114.885a1.63,1.63,0,0,0-1.2-.432c-.568,0-.882.176-.882.481s.284.49.9.53c.913.058,2.071.265,2.071,1.55,0,.854-.7,1.59-2.081,1.59a2.828,2.828,0,0,1-2.236-.864l.589-.853a2.649,2.649,0,0,0,1.668.677c.451.009.872-.225.872-.579,0-.334-.274-.471-.961-.51-.913-.069-2-.4-2-1.5,0-1.119,1.158-1.511,2.04-1.511a2.6,2.6,0,0,1,1.885.637Z" transform="translate(4.965 4.892)" fill="#fff"/>
    <path id="Path_25" data-name="Path 25" d="M121.271,113.593v2.532a1.154,1.154,0,0,0,1.167,1.3,1.273,1.273,0,0,0,1.237-1.354v-2.473h1.187v4.847h-1.07l-.078-.657a2.155,2.155,0,0,1-1.638.726c-1.159,0-2-.873-2-2.375v-2.541Z" transform="translate(5.177 4.897)" fill="#fff"/>
    <path id="Path_26" data-name="Path 26" d="M128.9,118.435v-2.59c0-.638-.334-1.217-.991-1.217a1.1,1.1,0,0,0-1.031,1.217v2.59h-1.2v-4.847h1.109l.088.588a1.4,1.4,0,0,1,1.276-.667,1.451,1.451,0,0,1,1.433.9,1.751,1.751,0,0,1,1.619-.882c1.373,0,2.05.844,2.05,2.3v2.61h-1.2v-2.61c0-.638-.265-1.178-.913-1.178a1.1,1.1,0,0,0-1.049,1.2v2.59Z" transform="translate(5.418 4.894)" fill="#fff"/>
    <path id="Path_27" data-name="Path 27" d="M135.136,116.445a1.286,1.286,0,0,0,1.442,1.031,2,2,0,0,0,1.3-.452l.765.755a2.972,2.972,0,0,1-2.08.785,2.557,2.557,0,1,1-.088-5.112c1.619,0,2.629,1,2.442,2.993Zm2.631-.991a1.109,1.109,0,0,0-1.257-.942,1.3,1.3,0,0,0-1.354.942Z" transform="translate(5.773 4.891)" fill="#fff"/>
    <path id="Path_28" data-name="Path 28" d="M140.7,113.6l.089.559a1.426,1.426,0,0,1,1.363-.686,1.836,1.836,0,0,1,1.247.461l-.54,1.04a1.193,1.193,0,0,0-.864-.314,1.116,1.116,0,0,0-1.206,1.227v2.55h-1.2V113.6Z" transform="translate(6.018 4.892)" fill="#fff"/>
    <path id="Path_29" data-name="Path 29" d="M149.79,116.494h-1.942v2.022h-1.3v-6.868c1.08,0,2.158-.01,3.238-.01a2.43,2.43,0,1,1,0,4.857m-1.942-1.187h1.942a1.217,1.217,0,1,0,0-2.434h-1.942Z" transform="translate(6.318 4.813)" fill="#fff"/>
    <path id="Path_30" data-name="Path 30" d="M153.737,113.6l.089.559a1.426,1.426,0,0,1,1.363-.686,1.836,1.836,0,0,1,1.247.461l-.54,1.04a1.193,1.193,0,0,0-.864-.314,1.116,1.116,0,0,0-1.206,1.227v2.55h-1.2V113.6Z" transform="translate(6.58 4.892)" fill="#fff"/>
    <path id="Path_31" data-name="Path 31" d="M161.527,116.021A2.516,2.516,0,1,1,159,113.5a2.444,2.444,0,0,1,2.531,2.521m-3.836,0a1.319,1.319,0,1,0,2.63,0,1.366,1.366,0,0,0-1.315-1.432,1.328,1.328,0,0,0-1.314,1.432" transform="translate(6.747 4.893)" fill="#fff"/>
    <path id="Path_32" data-name="Path 32" d="M163.72,112.286v1.374h1.333v1.03H163.71v2.09a.6.6,0,0,0,.627.687,1.353,1.353,0,0,0,.578-.148l.335,1.021a2.666,2.666,0,0,1-.991.206,1.562,1.562,0,0,1-1.736-1.766v-2.09h-.9v-1.03h.9v-1.247Z" transform="translate(6.968 4.841)" fill="#fff"/>
    <path id="Path_33" data-name="Path 33" d="M166.8,116.445a1.288,1.288,0,0,0,1.443,1.031,1.993,1.993,0,0,0,1.295-.452l.766.755a2.972,2.972,0,0,1-2.08.785,2.557,2.557,0,1,1-.088-5.112c1.619,0,2.629,1,2.443,2.993Zm2.63-.991a1.108,1.108,0,0,0-1.256-.942,1.3,1.3,0,0,0-1.354.942Z" transform="translate(7.138 4.891)" fill="#fff"/>
    <path id="Path_34" data-name="Path 34" d="M175.412,117.818a2.489,2.489,0,0,1-1.865.766,2.561,2.561,0,1,1,0-5.122,2.3,2.3,0,0,1,1.747.716l-.756.795a1.47,1.47,0,0,0-.971-.383,1.361,1.361,0,0,0-1.393,1.433,1.317,1.317,0,0,0,1.373,1.412,1.451,1.451,0,0,0,1.06-.4Z" transform="translate(7.371 4.892)" fill="#fff"/>
    <path id="Path_35" data-name="Path 35" d="M177.441,112.286v1.374h1.334v1.03H177.43v2.09a.6.6,0,0,0,.628.687,1.362,1.362,0,0,0,.579-.148l.334,1.021a2.658,2.658,0,0,1-.991.206,1.563,1.563,0,0,1-1.737-1.766v-2.09h-.9v-1.03h.9v-1.247Z" transform="translate(7.559 4.841)" fill="#fff"/>
    <path id="Path_36" data-name="Path 36" d="M180.8,112.315a.706.706,0,0,1-1.412,0,.706.706,0,0,1,1.412,0m-1.3,6.2h1.2v-4.857h-1.2Z" transform="translate(7.734 4.812)" fill="#fff"/>
    <path id="Path_37" data-name="Path 37" d="M186.59,116.021a2.517,2.517,0,1,1-2.531-2.521,2.444,2.444,0,0,1,2.531,2.521m-3.834,0a1.319,1.319,0,1,0,2.63,0,1.366,1.366,0,0,0-1.316-1.432,1.328,1.328,0,0,0-1.313,1.432" transform="translate(7.827 4.893)" fill="#fff"/>
    <path id="Path_38" data-name="Path 38" d="M190.735,118.434V115.9a1.154,1.154,0,0,0-1.167-1.295,1.272,1.272,0,0,0-1.237,1.354v2.472h-1.187v-4.847h1.07l.078.657a2.181,2.181,0,0,1,1.59-.726,2.105,2.105,0,0,1,2.05,2.375v2.541Z" transform="translate(8.068 4.894)" fill="#fff"/>
    <path id="Path_39" data-name="Path 39" d="M104.223,127.062a3.619,3.619,0,0,1-2.61,1.02,3.377,3.377,0,0,1-3.64-3.541,3.457,3.457,0,0,1,3.64-3.621,3.54,3.54,0,0,1,2.521,1.049l-.863.834a2.357,2.357,0,0,0-1.659-.648,2.252,2.252,0,0,0-2.365,2.385,2.2,2.2,0,0,0,2.365,2.325,2.529,2.529,0,0,0,1.727-.7Z" transform="translate(4.224 5.213)" fill="#fff"/>
    <path id="Path_40" data-name="Path 40" d="M109.3,125.426a2.517,2.517,0,1,1-2.531-2.521,2.444,2.444,0,0,1,2.531,2.521m-3.836,0a1.319,1.319,0,1,0,2.63,0,1.366,1.366,0,0,0-1.315-1.432,1.328,1.328,0,0,0-1.314,1.432" transform="translate(4.495 5.299)" fill="#fff"/>
    <path id="Path_41" data-name="Path 41" d="M113.1,127.84v-2.59c0-.638-.334-1.217-.991-1.217a1.1,1.1,0,0,0-1.031,1.217v2.59h-1.2v-4.847h1.11l.088.588a1.4,1.4,0,0,1,1.276-.667,1.449,1.449,0,0,1,1.432.9,1.752,1.752,0,0,1,1.619-.882c1.374,0,2.051.844,2.051,2.3v2.61h-1.2v-2.61c0-.638-.265-1.178-.913-1.178a1.1,1.1,0,0,0-1.05,1.2v2.59Z" transform="translate(4.737 5.299)" fill="#fff"/>
    <path id="Path_42" data-name="Path 42" d="M121.525,127.84v-2.59c0-.638-.334-1.217-.991-1.217a1.1,1.1,0,0,0-1.031,1.217v2.59h-1.2v-4.847h1.11l.088.588a1.4,1.4,0,0,1,1.276-.667,1.449,1.449,0,0,1,1.432.9,1.752,1.752,0,0,1,1.619-.882c1.374,0,2.051.844,2.051,2.3v2.61h-1.2v-2.61c0-.638-.265-1.178-.913-1.178a1.1,1.1,0,0,0-1.05,1.2v2.59Z" transform="translate(5.1 5.299)" fill="#fff"/>
    <path id="Path_43" data-name="Path 43" d="M128.043,121.72a.706.706,0,0,1-1.412,0,.706.706,0,0,1,1.412,0m-1.3,6.2h1.2v-4.857h-1.2Z" transform="translate(5.459 5.217)" fill="#fff"/>
    <path id="Path_44" data-name="Path 44" d="M132.086,124.29a1.629,1.629,0,0,0-1.2-.432c-.57,0-.884.176-.884.481s.285.49.9.53c.913.058,2.071.265,2.071,1.55,0,.854-.7,1.59-2.08,1.59a2.83,2.83,0,0,1-2.237-.864l.588-.853a2.653,2.653,0,0,0,1.668.677c.453.009.874-.225.874-.579,0-.334-.275-.471-.962-.51-.913-.069-2-.4-2-1.5,0-1.119,1.158-1.511,2.041-1.511a2.6,2.6,0,0,1,1.884.637Z" transform="translate(5.547 5.297)" fill="#fff"/>
    <path id="Path_45" data-name="Path 45" d="M136.7,124.29a1.634,1.634,0,0,0-1.2-.432c-.568,0-.882.176-.882.481s.284.49.9.53c.913.058,2.071.265,2.071,1.55,0,.854-.7,1.59-2.081,1.59a2.828,2.828,0,0,1-2.236-.864l.589-.853a2.649,2.649,0,0,0,1.668.677c.451.009.872-.225.872-.579,0-.334-.274-.471-.961-.51-.913-.069-2-.4-2-1.5,0-1.119,1.158-1.511,2.04-1.511a2.6,2.6,0,0,1,1.885.637Z" transform="translate(5.746 5.297)" fill="#fff"/>
    <path id="Path_46" data-name="Path 46" d="M139.461,121.72a.707.707,0,0,1-1.413,0,.707.707,0,0,1,1.413,0m-1.306,6.2h1.2v-4.857h-1.2Z" transform="translate(5.952 5.217)" fill="#fff"/>
    <path id="Path_47" data-name="Path 47" d="M145.253,125.426a2.517,2.517,0,1,1-2.532-2.521,2.445,2.445,0,0,1,2.532,2.521m-3.837,0a1.319,1.319,0,1,0,2.63,0,1.366,1.366,0,0,0-1.314-1.432,1.329,1.329,0,0,0-1.315,1.432" transform="translate(6.045 5.299)" fill="#fff"/>
    <path id="Path_48" data-name="Path 48" d="M149.4,127.839v-2.532a1.154,1.154,0,0,0-1.167-1.294,1.272,1.272,0,0,0-1.237,1.354v2.472h-1.187v-4.847h1.07l.078.657a2.181,2.181,0,0,1,1.59-.726,2.105,2.105,0,0,1,2.05,2.375v2.541Z" transform="translate(6.286 5.299)" fill="#fff"/>
    <path id="Path_49" data-name="Path 49" d="M6.034,108.161a3.535,3.535,0,0,1-2.5,1.031,3.513,3.513,0,1,1,0-7.025,3.538,3.538,0,0,1,2.5,1.03l-.363.314a3.006,3.006,0,0,0-2.139-.873,3.032,3.032,0,0,0,0,6.064,3.067,3.067,0,0,0,2.149-.873Z" transform="translate(0 4.405)" fill="#fff"/>
    <path id="Path_50" data-name="Path 50" d="M6.574,106.616A2.4,2.4,0,0,1,9.037,104.1a2.4,2.4,0,0,1,2.463,2.521A2.369,2.369,0,0,1,9.037,109.1a2.369,2.369,0,0,1-2.463-2.483m4.455,0a1.993,1.993,0,1,0-3.984,0,1.915,1.915,0,0,0,1.991,2.011,1.916,1.916,0,0,0,1.992-2.011" transform="translate(0.283 4.488)" fill="#fff"/>
    <path id="Path_51" data-name="Path 51" d="M13,102.681a.388.388,0,0,1-.775,0,.388.388,0,0,1,.775,0m-.637,6.427h.481V104.24h-.481Z" transform="translate(0.527 4.41)" fill="#fff"/>
    <path id="Path_52" data-name="Path 52" d="M21.318,109.03v-2.9a1.5,1.5,0,0,0-1.55-1.59,1.531,1.531,0,0,0-1.56,1.619v2.875h-.481v-2.875a1.556,1.556,0,1,0-3.11,0v2.875h-.481v-4.847h.451l.01.8a1.707,1.707,0,0,1,1.579-.9,1.781,1.781,0,0,1,1.8,1.2,1.875,1.875,0,0,1,1.8-1.2,1.95,1.95,0,0,1,2.031,2.041v2.9Z" transform="translate(0.609 4.487)" fill="#fff"/>
    <path id="Path_53" data-name="Path 53" d="M23.422,102.681a.388.388,0,0,1-.775,0,.388.388,0,0,1,.775,0m-.636,6.427h.481V104.24h-.481Z" transform="translate(0.976 4.41)" fill="#fff"/>
    <path id="Path_54" data-name="Path 54" d="M27.894,105.066a2.071,2.071,0,0,0-1.511-.51c-.755-.009-1.481.274-1.461.893.02.648.864.775,1.472.884.864.147,2.051.294,2,1.423-.029,1.069-1.138,1.354-1.992,1.354a2.5,2.5,0,0,1-2.119-.972l.353-.314a2.152,2.152,0,0,0,1.776.824c.588,0,1.481-.156,1.51-.922.02-.7-.784-.833-1.579-.962-.942-.156-1.874-.333-1.884-1.3-.01-.951.942-1.363,1.922-1.354a2.543,2.543,0,0,1,1.807.648Z" transform="translate(1.047 4.488)" fill="#fff"/>
    <path id="Path_55" data-name="Path 55" d="M29.893,102.681a.388.388,0,0,1-.775,0,.388.388,0,0,1,.775,0m-.637,6.427h.481V104.24h-.481Z" transform="translate(1.255 4.41)" fill="#fff"/>
    <path id="Path_56" data-name="Path 56" d="M34.933,109.11v-.874a1.931,1.931,0,0,1-1.727.952,2.022,2.022,0,0,1-2.188-2.139v-2.8H31.5v2.787a1.552,1.552,0,0,0,1.727,1.677,1.684,1.684,0,0,0,1.7-1.766v-2.7H35.4v4.858Zm-1.551-5.662.9-1.207v-.009h-.637l-.735,1.177v.04Z" transform="translate(1.337 4.407)" fill="#fff"/>
    <path id="Path_57" data-name="Path 57" d="M36.905,104.183v.864a1.929,1.929,0,0,1,1.726-.952,2.022,2.022,0,0,1,2.188,2.139v2.8h-.481v-2.787a1.551,1.551,0,0,0-1.726-1.677,1.684,1.684,0,0,0-1.7,1.766v2.7h-.481v-4.847Z" transform="translate(1.571 4.488)" fill="#fff"/>
    <path id="Path_58" data-name="Path 58" d="M48.335,109.027v-.873a1.928,1.928,0,0,1-1.726.951,2.022,2.022,0,0,1-2.188-2.138v-2.8H44.9v2.786a1.552,1.552,0,0,0,1.726,1.678,1.685,1.685,0,0,0,1.7-1.767v-2.7h.481v4.857Z" transform="translate(1.915 4.491)" fill="#fff"/>
    <path id="Path_59" data-name="Path 59" d="M57.019,109.03v-2.9a1.5,1.5,0,0,0-1.55-1.59,1.531,1.531,0,0,0-1.56,1.619v2.875h-.481v-2.875a1.556,1.556,0,1,0-3.11,0v2.875h-.482v-4.847h.452l.01.8a1.707,1.707,0,0,1,1.579-.9,1.782,1.782,0,0,1,1.8,1.2,1.874,1.874,0,0,1,1.8-1.2,1.95,1.95,0,0,1,2.031,2.041v2.9Z" transform="translate(2.149 4.487)" fill="#fff"/>
    <rect id="Rectangle_1" data-name="Rectangle 1" width="0.519" height="6.869" transform="translate(0.373 116.459)" fill="#fff"/>
    <path id="Path_60" data-name="Path 60" d="M2,116.021A2.4,2.4,0,0,1,4.466,113.5a2.4,2.4,0,0,1,2.463,2.521A2.369,2.369,0,0,1,4.466,118.5,2.369,2.369,0,0,1,2,116.021m4.454,0a1.965,1.965,0,0,0-1.992-2.071,1.965,1.965,0,0,0-1.991,2.071,1.915,1.915,0,0,0,1.991,2.011,1.916,1.916,0,0,0,1.992-2.011" transform="translate(0.086 4.893)" fill="#fff"/>
    <path id="Path_61" data-name="Path 61" d="M14.97,118.435v-2.9a1.5,1.5,0,0,0-1.55-1.59,1.531,1.531,0,0,0-1.56,1.619v2.875h-.481v-2.875a1.556,1.556,0,1,0-3.111,0v2.875H7.787v-4.847h.452l.01.8a1.707,1.707,0,0,1,1.579-.9,1.782,1.782,0,0,1,1.8,1.2,1.874,1.874,0,0,1,1.8-1.2,1.95,1.95,0,0,1,2.031,2.041v2.9Z" transform="translate(0.336 4.893)" fill="#fff"/>
    <path id="Path_62" data-name="Path 62" d="M21.1,113.586v4.846h-.481V117.4a2.267,2.267,0,0,1-1.982,1.109,2.493,2.493,0,0,1,0-4.985,2.2,2.2,0,0,1,1.982,1.119v-1.06Zm-4.445,2.423a1.946,1.946,0,0,0,1.982,2.031,2.026,2.026,0,0,0,0-4.052,1.938,1.938,0,0,0-1.982,2.022" transform="translate(0.697 4.894)" fill="#fff"/>
    <path id="Path_63" data-name="Path 63" d="M22.018,112.824v-.039l.549-1.148h.55v.009l-.648,1.178Zm.049,5.691h.481v-4.867h-.481Z" transform="translate(0.949 4.813)" fill="#fff"/>
    <path id="Path_64" data-name="Path 64" d="M23.691,116.021a2.463,2.463,0,1,1,4.926,0,2.463,2.463,0,1,1-4.926,0m4.455,0a1.993,1.993,0,1,0-3.984,0,1.992,1.992,0,1,0,3.984,0" transform="translate(1.021 4.893)" fill="#fff"/>
    <path id="Path_65" data-name="Path 65" d="M33.461,117.756a2.48,2.48,0,0,1-1.766.726,2.473,2.473,0,1,1,0-4.945,2.52,2.52,0,0,1,1.766.726l-.314.3a2.058,2.058,0,0,0-1.452-.579,2.021,2.021,0,1,0,0,4.042,2.048,2.048,0,0,0,1.442-.6Z" transform="translate(1.259 4.895)" fill="#fff"/>
    <path id="Path_66" data-name="Path 66" d="M34.686,111.646v2.924a1.937,1.937,0,0,1,1.746-.971,1.912,1.912,0,0,1,2.031,2.139v2.777h-.47v-2.777c0-1-.471-1.678-1.56-1.678a1.709,1.709,0,0,0-1.726,1.8v2.66h-.481v-6.869Z" transform="translate(1.476 4.813)" fill="#fff"/>
    <path id="Path_67" data-name="Path 67" d="M40.317,112.182v1.462h1.648v.4H40.317V117c0,.657.138,1.118.893,1.118a1.8,1.8,0,0,0,.746-.2l.167.392a2.12,2.12,0,0,1-.913.245c-1.031,0-1.363-.608-1.363-1.559v-2.954H38.816v-.4h1.031v-1.413Z" transform="translate(1.673 4.836)" fill="#fff"/>
    <path id="Path_68" data-name="Path 68" d="M49.857,113.586v4.846h-.481V117.4a2.266,2.266,0,0,1-1.982,1.109,2.493,2.493,0,0,1,0-4.985,2.2,2.2,0,0,1,1.982,1.119v-1.06Zm-4.445,2.423a1.947,1.947,0,0,0,1.982,2.031,2.026,2.026,0,0,0,0-4.052,1.939,1.939,0,0,0-1.982,2.022" transform="translate(1.937 4.894)" fill="#fff"/>
    <path id="Path_69" data-name="Path 69" d="M54.7,113.4l.314.274-.47.55a2.386,2.386,0,0,1-.707,3.708,1.778,1.778,0,0,1,1.325,1.737c0,1.3-1.02,1.933-2.305,1.933s-2.3-.706-2.3-1.933h.481c0,.991.844,1.462,1.816,1.462s1.834-.432,1.834-1.462-.931-1.452-1.834-1.452a2.356,2.356,0,0,1,0-4.71,2.457,2.457,0,0,1,1.373.441Zm-3.64,2.472a1.776,1.776,0,0,0,1.8,1.864,1.859,1.859,0,0,0,1.814-1.864,1.743,1.743,0,0,0-1.814-1.884,1.714,1.714,0,0,0-1.8,1.884" transform="translate(2.18 4.889)" fill="#fff"/>
    <path id="Path_70" data-name="Path 70" d="M59.8,118.432v-.873a1.928,1.928,0,0,1-1.726.951,2.022,2.022,0,0,1-2.188-2.138v-2.8h.481v2.786A1.552,1.552,0,0,0,58.1,118.04a1.685,1.685,0,0,0,1.7-1.767v-2.7h.481v4.857Z" transform="translate(2.409 4.896)" fill="#fff"/>
    <path id="Path_71" data-name="Path 71" d="M64.644,114.471a2.071,2.071,0,0,0-1.511-.51c-.755-.009-1.481.274-1.461.893.02.648.864.775,1.472.884.863.147,2.05.294,2,1.423-.029,1.069-1.139,1.354-1.992,1.354a2.5,2.5,0,0,1-2.119-.971l.353-.315a2.15,2.15,0,0,0,1.775.824c.589,0,1.482-.156,1.511-.922.02-.7-.784-.833-1.58-.962-.941-.156-1.873-.333-1.883-1.3-.01-.951.942-1.363,1.922-1.354a2.54,2.54,0,0,1,1.806.648Z" transform="translate(2.631 4.894)" fill="#fff"/>
    <path id="Path_72" data-name="Path 72" d="M6.034,126.972A3.535,3.535,0,0,1,3.532,128a3.513,3.513,0,1,1,0-7.025,3.538,3.538,0,0,1,2.5,1.03l-.363.314a3.006,3.006,0,0,0-2.139-.873,3.032,3.032,0,0,0,0,6.064,3.067,3.067,0,0,0,2.149-.873Z" transform="translate(0 5.216)" fill="#fff"/>
    <path id="Path_73" data-name="Path 73" d="M6.574,125.426a2.4,2.4,0,0,1,2.463-2.521,2.4,2.4,0,0,1,2.463,2.521,2.369,2.369,0,0,1-2.463,2.483,2.369,2.369,0,0,1-2.463-2.483m4.455,0a1.993,1.993,0,1,0-3.984,0,1.915,1.915,0,0,0,1.991,2.011,1.916,1.916,0,0,0,1.992-2.011" transform="translate(0.283 5.299)" fill="#fff"/>
    <path id="Path_74" data-name="Path 74" d="M15.623,123.876a2.071,2.071,0,0,0-1.511-.51c-.755-.009-1.481.274-1.461.893.02.648.864.775,1.472.884.863.147,2.05.294,2,1.423-.03,1.069-1.139,1.354-1.992,1.354a2.5,2.5,0,0,1-2.12-.972l.354-.314a2.151,2.151,0,0,0,1.775.824c.589,0,1.482-.156,1.511-.922.02-.7-.784-.833-1.58-.962-.941-.156-1.873-.333-1.883-1.3-.01-.951.942-1.363,1.922-1.354a2.54,2.54,0,0,1,1.806.648Z" transform="translate(0.518 5.299)" fill="#fff"/>
    <path id="Path_75" data-name="Path 75" d="M21.65,122.992v4.846h-.481v-1.03a2.266,2.266,0,0,1-1.982,1.109,2.493,2.493,0,0,1,0-4.985,2.2,2.2,0,0,1,1.982,1.119v-1.06ZM17.2,125.416a1.946,1.946,0,0,0,1.982,2.031,2.026,2.026,0,0,0,0-4.052,1.939,1.939,0,0,0-1.982,2.022" transform="translate(0.721 5.3)" fill="#fff"/>
    <path id="Path_76" data-name="Path 76" d="M23.638,121.491a.388.388,0,0,1-.775,0,.388.388,0,0,1,.775,0M23,127.917h.481V123.05H23Z" transform="translate(0.986 5.221)" fill="#fff"/>
    <path id="Path_77" data-name="Path 77" d="M25.316,122.993v.864a1.928,1.928,0,0,1,1.726-.952,2.022,2.022,0,0,1,2.188,2.139v2.8H28.75v-2.787a1.552,1.552,0,0,0-1.726-1.677,1.684,1.684,0,0,0-1.7,1.766v2.7h-.481v-4.847Z" transform="translate(1.071 5.299)" fill="#fff"/>
    <path id="Path_78" data-name="Path 78" d="M31.181,121.588v1.462h1.648v.4H31.181v2.954c0,.657.138,1.118.893,1.118a1.8,1.8,0,0,0,.746-.2l.167.392a2.125,2.125,0,0,1-.913.245c-1.031,0-1.364-.608-1.364-1.559v-2.954H29.68v-.4h1.03v-1.413Z" transform="translate(1.28 5.242)" fill="#fff"/>
    <path id="Path_79" data-name="Path 79" d="M38.407,121.532H35.925v-.47h5.5v.47H38.937v6.388h-.53Z" transform="translate(1.549 5.219)" fill="#fff"/>
    <path id="Path_80" data-name="Path 80" d="M40.581,125.426a2.463,2.463,0,1,1,4.925,0,2.462,2.462,0,1,1-4.925,0m4.454,0a1.993,1.993,0,1,0-3.984,0,1.992,1.992,0,1,0,3.984,0" transform="translate(1.75 5.299)" fill="#fff"/>
    <path id="Path_81" data-name="Path 81" d="M53.547,127.84v-2.9a1.5,1.5,0,0,0-1.55-1.59,1.531,1.531,0,0,0-1.56,1.619v2.875h-.481v-2.875a1.556,1.556,0,1,0-3.11,0v2.875h-.482v-4.847h.452l.01.8a1.707,1.707,0,0,1,1.579-.9,1.782,1.782,0,0,1,1.8,1.2,1.875,1.875,0,0,1,1.8-1.2,1.95,1.95,0,0,1,2.031,2.041v2.9Z" transform="translate(1.999 5.298)" fill="#fff"/>
    <path id="Path_82" data-name="Path 82" d="M55.469,121.052v2.924A1.937,1.937,0,0,1,57.215,123a1.912,1.912,0,0,1,2.03,2.139v2.777h-.47v-2.777c0-1-.471-1.678-1.559-1.678a1.71,1.71,0,0,0-1.727,1.8v2.66h-.481v-6.869Z" transform="translate(2.371 5.219)" fill="#fff"/>
    <path id="Path_83" data-name="Path 83" d="M65.013,122.992v4.846h-.48v-1.03a2.268,2.268,0,0,1-1.983,1.109,2.493,2.493,0,0,1,0-4.985,2.2,2.2,0,0,1,1.983,1.119v-1.06Zm-4.445,2.423a1.947,1.947,0,0,0,1.982,2.031,2.026,2.026,0,0,0,0-4.052,1.939,1.939,0,0,0-1.982,2.022" transform="translate(2.59 5.3)" fill="#fff"/>
    <rect id="Rectangle_2" data-name="Rectangle 2" width="0.481" height="6.869" transform="translate(68.907 126.27)" fill="#fff"/>
    <path id="Path_84" data-name="Path 84" d="M68.867,121.588v1.462h1.648v.4H68.867v2.954c0,.657.138,1.118.893,1.118a1.8,1.8,0,0,0,.746-.2l.167.392a2.125,2.125,0,0,1-.913.245c-1.031,0-1.364-.608-1.364-1.559v-2.954h-1.03v-.4H68.4v-1.413Z" transform="translate(2.904 5.242)" fill="#fff"/>
    <path id="Path_85" data-name="Path 85" d="M73.395,127.987a2.369,2.369,0,0,1-2.463-2.483,2.463,2.463,0,1,1,4.926,0,2.369,2.369,0,0,1-2.463,2.483m0-.471a1.916,1.916,0,0,0,1.992-2.011,1.993,1.993,0,1,0-3.984,0,1.915,1.915,0,0,0,1.991,2.011m.138-5.289.873-1.129v-.009h-.618l-.706,1.1v.04Z" transform="translate(3.058 5.22)" fill="#fff"/>
    <path id="Path_86" data-name="Path 86" d="M77.36,121.491a.388.388,0,0,1-.775,0,.388.388,0,0,1,.775,0m-.637,6.427h.48V123.05h-.48Z" transform="translate(3.302 5.221)" fill="#fff"/>
    <path id="Path_87" data-name="Path 87" d="M78.946,122.991l.02.864a1.7,1.7,0,0,1,1.608-.913,1.9,1.9,0,0,1,1.04.285l-.216.392a1.551,1.551,0,0,0-.824-.225,1.609,1.609,0,0,0-1.6,1.619v2.826h-.481v-4.847Z" transform="translate(3.384 5.3)" fill="#fff"/>
    <path id="Path_88" data-name="Path 88" d="M82.049,122.229v-.039l.55-1.148h.55v.01l-.648,1.177Zm.049,5.691h.481v-4.867H82.1Z" transform="translate(3.537 5.218)" fill="#fff"/>
    <line id="Line_1" data-name="Line 1" y2="33.785" transform="translate(94.756 102.89)" fill="#fff"/>
    <rect id="Rectangle_3" data-name="Rectangle 3" width="0.312" height="33.785" transform="translate(94.601 102.89)" fill="#fff"/>
  </g>
</svg>
